<svg width="16" height="16" viewBox="0 0 16 16" fill="none" xmlns="http://www.w3.org/2000/svg">
<path fill-rule="evenodd" clip-rule="evenodd" d="M1.71429 0C1.25963 0 0.823594 0.180612 0.502103 0.502103C0.180612 0.823594 0 1.25963 0 1.71429L0 14.2857C0 14.7404 0.180612 15.1764 0.502103 15.4979C0.823594 15.8194 1.25963 16 1.71429 16H4.57143C5.02608 16 5.46212 15.8194 5.78361 15.4979C6.1051 15.1764 6.28571 14.7404 6.28571 14.2857V1.71429C6.28571 1.25963 6.1051 0.823594 5.78361 0.502103C5.46212 0.180612 5.02608 0 4.57143 0L1.71429 0ZM8.57143 6.85714C8.26832 6.85714 7.97763 6.97755 7.76331 7.19188C7.54898 7.40621 7.42857 7.6969 7.42857 8C7.42857 8.30311 7.54898 8.59379 7.76331 8.80812C7.97763 9.02245 8.26832 9.14286 8.57143 9.14286H12V10.8571C11.9998 10.9703 12.0332 11.081 12.096 11.1751C12.1588 11.2693 12.2481 11.3427 12.3526 11.386C12.4572 11.4294 12.5722 11.4407 12.6832 11.4186C12.7942 11.3964 12.8961 11.3418 12.976 11.2617L15.8331 8.40457C15.8864 8.35149 15.9286 8.28843 15.9574 8.21901C15.9862 8.14959 16.001 8.07516 16.001 8C16.001 7.92484 15.9862 7.85041 15.9574 7.78099C15.9286 7.71157 15.8864 7.64851 15.8331 7.59543L12.976 4.73829C12.8961 4.65816 12.7942 4.60358 12.6832 4.58144C12.5722 4.55931 12.4572 4.57063 12.3526 4.61396C12.2481 4.6573 12.1588 4.73069 12.096 4.82485C12.0332 4.91901 11.9998 5.02969 12 5.14286V6.85714H8.57143Z" fill="#C84949"/>
</svg>
