<svg width="32" height="32" viewBox="0 0 32 32" fill="none" xmlns="http://www.w3.org/2000/svg">
<rect width="32" height="32" rx="16" fill="white"/>
<path d="M9.15256 8.3549L16 6.83325L22.8474 8.3549C23.2287 8.43964 23.5 8.77781 23.5 9.16839V17.4907C23.5 19.1624 22.6645 20.7236 21.2735 21.6509L16 25.1666L10.7265 21.6509C9.33551 20.7236 8.5 19.1624 8.5 17.4907V9.16839C8.5 8.77781 8.77128 8.43964 9.15256 8.3549ZM16 17.2499L18.4491 18.5375L17.9813 15.8103L19.9628 13.879L17.2246 13.4811L16 10.9999L14.7754 13.4811L12.0373 13.879L14.0186 15.8103L13.5509 18.5375L16 17.2499Z" fill="#1B8FEF"/>
</svg>
