<svg width="32" height="32" viewBox="0 0 32 32" fill="none" xmlns="http://www.w3.org/2000/svg">
<circle cx="16" cy="16" r="16" fill="#E8E8E8"/>
<path d="M20.5 13H22C22.4142 13 22.75 13.3358 22.75 13.75V22.75C22.75 23.1642 22.4142 23.5 22 23.5H10C9.58579 23.5 9.25 23.1642 9.25 22.75V13.75C9.25 13.3358 9.58579 13 10 13H11.5V12.25C11.5 9.76472 13.5147 7.75 16 7.75C18.4853 7.75 20.5 9.76472 20.5 12.25V13ZM15.25 18.7993V20.5H16.75V18.7993C17.1983 18.54 17.5 18.0552 17.5 17.5C17.5 16.6715 16.8285 16 16 16C15.1715 16 14.5 16.6715 14.5 17.5C14.5 18.0552 14.8017 18.54 15.25 18.7993ZM19 13V12.25C19 10.5931 17.6568 9.25 16 9.25C14.3431 9.25 13 10.5931 13 12.25V13H19Z" fill="#979797"/>
</svg>
