<svg width="56" height="56" viewBox="0 0 56 56" fill="none" xmlns="http://www.w3.org/2000/svg">
<rect width="56" height="56" rx="28" fill="#3BA3F8"/>
<path d="M29.7584 15.4215C30.1955 15.5029 30.4136 15.2614 30.4772 14.9301C30.5633 14.4884 30.378 12.2666 30.378 12.2666C30.378 12.2666 29.3672 14.2479 29.2802 14.6877C29.2147 15.0181 29.3242 15.3326 29.7584 15.4205" fill="#FFFF00"/>
<path d="M31.3499 15.9109C31.7626 16.0775 32.0219 15.8819 32.1492 15.5712C32.3195 15.1556 32.5647 12.9395 32.5647 12.9395C32.5647 12.9395 31.1917 14.6811 31.0224 15.0976C30.896 15.4093 30.9409 15.7377 31.3499 15.9109Z" fill="#FFFF00"/>
<path d="M32.8169 16.7041C33.1913 16.9503 33.4814 16.8099 33.6658 16.5291C33.9128 16.1548 34.5792 14.0312 34.5792 14.0312C34.5792 14.0312 32.8946 15.4688 32.6513 15.8422C32.4641 16.123 32.4472 16.4552 32.8169 16.7041Z" fill="#FFFF00"/>
<path d="M34.1007 17.7758C34.4189 18.0893 34.7334 18.0107 34.9683 17.7758C35.2818 17.4576 36.345 15.5054 36.345 15.5054C36.345 15.5054 34.4189 16.5826 34.1054 16.9008C33.8695 17.1385 33.7872 17.4623 34.1054 17.7796" fill="#FFFF00"/>
<path d="M35.1574 19.0757C35.4091 19.4501 35.732 19.4313 36.009 19.2442C36.3768 18.9943 37.7956 17.29 37.7956 17.29C37.7956 17.29 35.6993 17.9657 35.3296 18.2156C35.0535 18.4028 34.9103 18.7023 35.1574 19.0757Z" fill="#FFFF00"/>
<path d="M35.9402 20.5632C36.1152 20.9759 36.4353 21.0246 36.7423 20.8954C37.1522 20.7232 38.8714 19.3325 38.8714 19.3325C38.8714 19.3325 36.6861 19.5805 36.2762 19.7527C35.9683 19.8819 35.7708 20.1477 35.9402 20.5632Z" fill="#FFFF00"/>
<path d="M36.4227 22.1745C36.5163 22.6144 36.8186 22.7248 37.1461 22.6593C37.5813 22.5714 39.5345 21.5466 39.5345 21.5466C39.5345 21.5466 37.3436 21.3594 36.9075 21.4464C36.5809 21.5119 36.3366 21.7337 36.4227 22.1745Z" fill="#FFFF00"/>
<path d="M36.5859 23.8525C36.5916 24.3027 36.8667 24.4711 37.2018 24.4711C37.6454 24.4711 39.7595 23.8525 39.7595 23.8525C39.7595 23.8525 37.6454 23.2339 37.2018 23.2339C36.8695 23.2339 36.5859 23.4023 36.5859 23.8525Z" fill="#FFFF00"/>
<path d="M36.4229 25.53C36.3425 25.9718 36.5811 26.1926 36.9077 26.2581C37.3439 26.3452 39.5348 26.1571 39.5348 26.1571C39.5348 26.1571 37.5816 25.1332 37.1464 25.0452C36.8188 24.9788 36.5091 25.0883 36.4229 25.53Z" fill="#FFFF00"/>
<path d="M35.9402 27.1421C35.7755 27.5595 35.9683 27.8225 36.2762 27.9517C36.6861 28.1248 38.8714 28.3728 38.8714 28.3728C38.8714 28.3728 37.1521 26.9812 36.7422 26.8099C36.4353 26.6798 36.1105 26.7266 35.9402 27.1421Z" fill="#FFFF00"/>
<path d="M35.1573 28.6325C34.9149 29.0069 35.0534 29.3064 35.3295 29.4926C35.7038 29.7434 37.7955 30.4191 37.7955 30.4191C37.7955 30.4191 36.3767 28.7139 36.0089 28.465C35.7282 28.2778 35.4034 28.2582 35.1573 28.6325Z" fill="#FFFF00"/>
<path d="M34.1014 29.9314C33.7916 30.2534 33.8702 30.5716 34.1014 30.8102C34.4149 31.1284 36.3409 32.2047 36.3409 32.2047C36.3409 32.2047 35.2778 30.2534 34.9643 29.9352C34.7293 29.6975 34.4112 29.6132 34.0967 29.9352" fill="#FFFF00"/>
<path d="M32.8169 31.0003C32.451 31.2548 32.466 31.5824 32.6513 31.8632C32.8965 32.2375 34.5792 33.6741 34.5792 33.6741C34.5792 33.6741 33.9128 31.5496 33.6658 31.1753C33.4786 30.8945 33.1847 30.7504 32.8169 31.0003Z" fill="#FFFF00"/>
<path d="M31.3497 31.7944C30.9417 31.9712 30.8958 32.296 31.0222 32.6076C31.1916 33.0241 32.5645 34.7658 32.5645 34.7658C32.5645 34.7658 32.3193 32.5496 32.149 32.1341C32.0217 31.8224 31.7606 31.6222 31.3497 31.7944Z" fill="#FFFF00"/>
<path d="M23.3911 31.0002C23.0168 30.755 22.7267 30.8944 22.5414 31.1752C22.2962 31.5495 21.6279 33.674 21.6279 33.674C21.6279 33.674 23.3125 32.2365 23.5568 31.863C23.744 31.5823 23.7608 31.25 23.3911 31.0002Z" fill="#FFFF00"/>
<path d="M22.1046 29.9314C21.7864 29.6169 21.4729 29.6974 21.237 29.9314C20.9235 30.2496 19.8604 32.2009 19.8604 32.2009C19.8604 32.2009 21.7864 31.1246 22.1009 30.8064C22.3358 30.5678 22.4181 30.2449 22.1009 29.9276" fill="#FFFF00"/>
<path d="M21.0523 28.6325C20.8015 28.2582 20.4786 28.2778 20.2016 28.465C19.8328 28.7139 18.4131 30.4191 18.4131 30.4191C18.4131 30.4191 20.5095 29.7434 20.8791 29.4926C21.1599 29.3054 21.2984 29.0069 21.0523 28.6325Z" fill="#FFFF00"/>
<path d="M20.2681 27.1422C20.0931 26.7286 19.773 26.6799 19.4661 26.81C19.0561 26.9813 17.3369 28.3729 17.3369 28.3729C17.3369 28.3729 19.5231 28.1249 19.9331 27.9518C20.24 27.8226 20.4384 27.5578 20.2681 27.1422Z" fill="#FFFF00"/>
<path d="M19.7847 25.5299C19.6911 25.09 19.3888 24.9786 19.0622 25.0451C18.627 25.1331 16.6738 26.1569 16.6738 26.1569C16.6738 26.1569 18.8647 26.3441 19.3009 26.258C19.6265 26.1925 19.8717 25.9707 19.7847 25.5299Z" fill="#FFFF00"/>
<path d="M19.6219 23.8525C19.6172 23.4023 19.3411 23.2339 19.0061 23.2339C18.5624 23.2339 16.4492 23.8525 16.4492 23.8525C16.4492 23.8525 18.5624 24.4711 19.0061 24.4711C19.3392 24.4711 19.6219 24.3027 19.6219 23.8525Z" fill="#FFFF00"/>
<path d="M19.7847 22.1749C19.8661 21.7322 19.6265 21.5123 19.3009 21.4468C18.8647 21.3588 16.6738 21.5469 16.6738 21.5469C16.6738 21.5469 18.627 22.5717 19.0622 22.6597C19.3888 22.7252 19.6986 22.6157 19.7847 22.1749Z" fill="#FFFF00"/>
<path d="M20.2681 20.5632C20.4328 20.1449 20.24 19.8819 19.9331 19.7527C19.5231 19.5805 17.3369 19.3325 17.3369 19.3325C17.3369 19.3325 19.0561 20.7232 19.466 20.8954C19.773 21.0246 20.0987 20.9787 20.2681 20.5632Z" fill="#FFFF00"/>
<path d="M21.0523 19.0757C21.2937 18.7014 21.1562 18.4028 20.8791 18.2156C20.5095 17.9657 18.4131 17.29 18.4131 17.29C18.4131 17.29 19.8328 18.9943 20.2016 19.2442C20.4823 19.4313 20.8061 19.4501 21.0523 19.0757Z" fill="#FFFF00"/>
<path d="M22.1038 17.7762C22.4136 17.4542 22.335 17.1351 22.1038 16.8974C21.7893 16.5792 19.8633 15.502 19.8633 15.502C19.8633 15.502 20.9264 17.4542 21.24 17.7724C21.4758 18.0111 21.794 18.0934 22.1075 17.7724" fill="#FFFF00"/>
<path d="M28.0934 16.2935C32.2179 16.2935 35.5609 19.6823 35.5609 23.862C35.5609 28.0416 32.2188 31.4295 28.0934 31.4295C23.9681 31.4295 20.627 28.0425 20.627 23.8591C20.627 19.6757 23.9755 16.2935 28.0934 16.2935Z" fill="#FFFF00"/>
<path d="M28.1043 15.2567C28.5479 15.2501 28.7136 14.9694 28.7136 14.6315C28.7136 14.1823 28.1043 12.04 28.1043 12.04C28.1043 12.04 27.4941 14.1823 27.4941 14.6315C27.4941 14.9694 27.6598 15.2567 28.1043 15.2567Z" fill="#FFFF00"/>
<path d="M29.7584 32.282C29.3242 32.3756 29.2147 32.6835 29.2802 33.0148C29.3672 33.4547 30.378 35.4359 30.378 35.4359C30.378 35.4359 30.5652 33.2141 30.4772 32.7733C30.4117 32.443 30.1964 32.194 29.7584 32.282Z" fill="#FFFF00"/>
<path d="M28.1043 32.4487C27.6598 32.4553 27.4941 32.736 27.4941 33.073C27.4941 33.5231 28.1043 35.6644 28.1043 35.6644C28.1043 35.6644 28.7136 33.5231 28.7136 33.073C28.7136 32.736 28.5479 32.4487 28.1043 32.4487Z" fill="#FFFF00"/>
<path d="M26.4495 32.2825C26.0134 32.201 25.7944 32.4434 25.7307 32.7738C25.6446 33.2146 25.8309 35.4364 25.8309 35.4364C25.8309 35.4364 26.8407 33.4551 26.9287 33.0153C26.9932 32.684 26.8847 32.3695 26.4495 32.2825Z" fill="#FFFF00"/>
<path d="M24.8584 31.7944C24.4456 31.6278 24.1864 31.8225 24.0591 32.1342C23.8897 32.5497 23.6445 34.7659 23.6445 34.7659C23.6445 34.7659 25.0165 33.0242 25.1859 32.6077C25.3141 32.2961 25.2683 31.9666 24.8584 31.7944Z" fill="#FFFF00"/>
<path d="M23.3911 16.7041C23.7571 16.4505 23.7421 16.123 23.5568 15.8422C23.3107 15.4678 21.6279 14.0312 21.6279 14.0312C21.6279 14.0312 22.2962 16.1557 22.5414 16.5291C22.7285 16.8099 23.0224 16.954 23.3911 16.7041Z" fill="#FFFF00"/>
<path d="M24.8584 15.9104C25.2664 15.7335 25.3141 15.4088 25.1859 15.0971C25.0165 14.6806 23.6445 12.939 23.6445 12.939C23.6445 12.939 23.8897 15.1551 24.0591 15.5707C24.1864 15.8814 24.4485 16.0817 24.8584 15.9104Z" fill="#FFFF00"/>
<path d="M26.4498 15.4215C26.8841 15.3279 26.9936 15.019 26.929 14.6887C26.841 14.2479 25.8312 12.2666 25.8312 12.2666C25.8312 12.2666 25.6441 14.4884 25.7311 14.9301C25.7966 15.2614 26.0119 15.5094 26.4498 15.4215Z" fill="#FFFF00"/>
<path d="M27.8461 37.068L27.717 37.3301L27.5738 37.6632L27.4867 37.8233L27.4156 37.9683L27.3585 38.0835L27.2874 38.1565L27.1152 38.0114L26.929 37.8813L26.7287 37.7793L26.5144 37.6923L26.2851 37.6342L26.0558 37.5762L25.8274 37.5322L25.5831 37.5032L25.0815 37.4592L24.5808 37.4452L24.0951 37.4171L23.6365 37.3591L23.3791 37.3151L23.1358 37.2571L23.0067 37.2131L22.8775 37.17L22.7633 37.112L22.6632 37.054L22.505 36.952L22.3478 36.835L22.1756 36.7058L22.0184 36.5598L21.6899 36.2407L21.3604 35.9216L21.031 35.6165L20.7306 35.3413L20.5874 35.2393L20.4442 35.1382L20.3151 35.0802L20.1859 35.0372L19.9426 34.9791L19.7273 34.9061L19.513 34.8341L19.2987 34.7321L19.1115 34.645L18.9262 34.528L18.754 34.4129L18.5968 34.2969L18.4246 34.1658L18.2823 34.0348L18.1391 33.8898L17.9959 33.7456L17.7236 33.4405L17.4653 33.1205L16.9506 32.4391L16.4068 31.7428L16.0914 31.4097L15.7629 31.0756L15.5767 30.9015L15.3904 30.7405L15.1892 30.5973L14.9749 30.4363L14.9319 30.4513L14.8888 30.4944L14.8458 30.5524L14.8177 30.6254L14.7746 30.7564L14.7606 30.8144L14.6605 30.7714L14.5743 30.7265L14.4742 30.6834L14.3881 30.6544H14.2019L14.1017 30.6834L14.0016 30.7265L14.1017 30.8575L14.2299 31.0316L14.3591 31.2356L14.4742 31.4527L14.5884 31.6848L14.6745 31.9019L14.7026 32.0189L14.7316 32.106L14.7466 32.207V32.2941H14.5884H13.9735L14.0868 32.4681L14.2159 32.6432L14.3591 32.8163L14.5163 32.9763L14.6745 33.1364L14.8317 33.2955L14.9889 33.4265L15.1321 33.5276L14.9749 33.5425L14.7606 33.5566L14.5453 33.5847L14.3881 33.5996L14.5163 33.7166L14.6745 33.8327L14.8458 33.9618L15.0329 34.0938L15.2182 34.2089L15.4045 34.3109L15.5767 34.3689L15.7339 34.4129L15.805 34.427L15.8621 34.4419L15.9061 34.4569L15.9342 34.4859L15.9482 34.499V34.558L15.9342 34.587L15.9061 34.675L15.8911 34.7611L15.8771 34.8191V34.8631L15.8911 34.9351L15.9061 34.9932L15.9342 35.0222L15.9772 35.0512L16.0343 35.0802L16.1064 35.0942L16.1775 35.1233L16.2496 35.1523L16.3207 35.1822L16.3778 35.2253L16.3928 35.2393V35.2692L16.3778 35.2842L16.3207 35.3273L16.2636 35.3703L16.2056 35.4274L16.1485 35.5014V35.5594L16.1345 35.6165L16.1485 35.6895L16.1625 35.7765L16.4068 35.8645L16.6642 35.9515L16.7784 35.9796L16.8925 36.0236L16.9786 36.0666L17.0507 36.1106L16.5781 36.4887L16.7072 36.6038L16.8645 36.6909L17.0647 36.7929L17.265 36.8649L17.4952 36.9379L17.7096 36.981L17.8958 37.024H18.0671L17.9098 37.141L17.7096 37.2711L17.4952 37.3872L17.3371 37.5032L17.4812 37.6052L17.6815 37.7072L17.9098 37.8233L18.1822 37.9534L18.812 38.2285L19.499 38.5046L20.214 38.7657L20.9168 38.9978L21.2313 39.0998L21.5177 39.1728L21.775 39.244L22.0043 39.2879L21.5467 39.244L21.1171 39.1869L20.6866 39.1148L20.286 39.0259L19.8855 38.9108L19.499 38.7957L19.1265 38.6637L18.769 38.5196L18.0671 38.2285L17.4091 37.9384L17.0937 37.8074L16.7784 37.6773L16.4779 37.5612L16.1775 37.4452L16.2496 37.4021L16.3347 37.3722L16.4499 37.3301L16.5781 37.3001L16.8504 37.2131L17.0937 37.126L16.6642 37.054L16.0774 36.9379L15.791 36.8509L15.5477 36.7779L15.4475 36.7348L15.3614 36.6909L15.2903 36.6469L15.2472 36.6038V36.5889L15.2613 36.5748L15.3043 36.5598L15.3474 36.5308L15.4616 36.4887L15.6197 36.4438L15.9632 36.3418L16.2496 36.2407L15.5477 36.1106L15.0039 36.0236L14.8036 35.9796L14.6455 35.9216L14.5884 35.8935L14.5313 35.8495L14.4882 35.8205L14.4602 35.7765L14.5023 35.7475L14.6314 35.7185L14.8177 35.6895L15.0329 35.6464L15.2613 35.6165L15.4616 35.5594L15.5626 35.5294L15.6478 35.5014L15.7058 35.4574L15.7629 35.4134L15.6478 35.3703L15.5327 35.3273L15.3904 35.2983L15.2472 35.2692L14.9178 35.2253L14.5884 35.1822L14.4162 35.1382L14.2599 35.1092L14.1017 35.0512L13.9436 34.9932L13.8004 34.9211L13.6722 34.8191L13.557 34.7171L13.4709 34.587L13.5009 34.572L13.557 34.558H13.6291L13.7433 34.572L14.0016 34.587L14.288 34.601L14.6024 34.631H15.0039L15.1181 34.6151L15.2042 34.587L15.2613 34.558L14.9178 34.4129L14.4602 34.2089L14.2019 34.0797L13.9295 33.9487L13.6581 33.8027L13.3858 33.6577L13.1275 33.4986L12.8851 33.3245L12.6558 33.1504L12.4546 32.9763L12.3694 32.8743L12.2833 32.7873L12.2262 32.7012L12.1691 32.5992L12.1111 32.5121L12.083 32.4101L12.069 32.3231L12.0549 32.2211H12.1551L12.2693 32.2361L12.3834 32.28L12.4986 32.3231L12.7269 32.4681L12.9852 32.6141L13.0994 32.6862L13.2285 32.7583L13.3568 32.8163L13.4709 32.8603L13.6001 32.8902L13.7152 32.9043H13.8444L13.9585 32.8603L13.6141 32.5992L13.2285 32.2651L12.784 31.8739L12.3413 31.4387L11.8968 30.9735L11.4812 30.5103L11.295 30.2632L11.1097 30.0311L10.9525 29.799L10.8083 29.5809L10.7803 29.522V29.4209L10.7943 29.3779L10.8083 29.3339L10.8514 29.3049L10.8944 29.2618L10.9375 29.2328L10.9946 29.2188L11.0517 29.2038H11.1668L11.2389 29.2188L11.295 29.2328L11.353 29.2759L11.3961 29.3198L11.6535 29.5809L11.9539 29.8851L12.2693 30.2192L12.6127 30.5524L12.9562 30.8575L13.2997 31.1476L13.4709 31.2646L13.6291 31.3657L13.8004 31.4527L13.9585 31.5107L13.8444 31.4387L13.7152 31.3077L13.543 31.1345L13.3568 30.9155L12.9422 30.4083L12.4845 29.8121L12.2543 29.4939L12.04 29.1748L11.8397 28.8556L11.6394 28.5505L11.4672 28.2604L11.324 27.9993L11.2239 27.7532L11.1378 27.5501L11.1237 27.4771V27.361L11.1378 27.317L11.1668 27.274L11.1949 27.23L11.2239 27.201L11.2669 27.1729L11.3671 27.143L11.4532 27.114H11.6535L11.7115 27.1289L11.7536 27.143L11.8107 27.1729L11.8547 27.216L11.9688 27.317L12.083 27.4621L12.3413 27.7962L12.6127 28.2174L12.9272 28.6666L13.2566 29.1308L13.4288 29.3488L13.6001 29.5669L13.7873 29.755L13.9875 29.9291L13.7433 29.4499L13.4709 28.8987L13.3287 28.5945L13.1995 28.2894L13.0704 27.9703L12.9562 27.6512L12.8561 27.317L12.7559 26.9979L12.6848 26.6788L12.6268 26.3596L12.5978 26.0545L12.5837 25.7644L12.5978 25.6194L12.6127 25.4893L12.6268 25.3582L12.6558 25.2282L12.6848 25.1842L12.6988 25.1411L12.7419 25.0971L12.77 25.0681L12.8701 25.0241L12.9712 24.9951H13.0704L13.1574 25.0101L13.1995 25.0241L13.2285 25.0391L13.2426 25.0681L13.2566 25.1121L13.3998 25.5763L13.529 26.0695L13.6581 26.5768L13.7873 27.0709L13.9155 27.5641L14.0868 28.0283L14.1729 28.2454L14.2739 28.4635L14.3881 28.6666L14.5163 28.8697L14.4312 28.4495L14.3731 28.0714L14.316 27.7242L14.288 27.4041L14.2599 27.1289L14.2449 26.8828L14.2599 26.6788L14.2739 26.5047L14.302 26.3596L14.3451 26.2436L14.3731 26.1996L14.4021 26.1565L14.4312 26.1275L14.4742 26.0985L14.5163 26.0835H14.6455L14.7606 26.1275L14.8748 26.1856L14.9749 26.6498L15.075 27.0999L15.1892 27.5201L15.3184 27.9272L15.4616 28.3334L15.6197 28.7396L15.791 29.1598L15.9913 29.5809L16.1345 29.857L16.2777 30.1322L16.4349 30.4083L16.593 30.6834L16.7643 30.9455L16.9365 31.2066L17.1218 31.4668L17.309 31.7288L17.6525 32.164L18.01 32.5692L18.3825 32.9763L18.769 33.3535L19.1695 33.7307L19.5851 34.0797L20.0137 34.4129L20.4582 34.7321L20.7587 34.9351L21.0741 35.1233L21.4035 35.3123L21.7179 35.4864L22.2196 35.7335L22.7062 35.9646L23.221 36.1686L23.7367 36.3577L24.2233 36.5168L24.724 36.6469L25.2397 36.7639L25.7404 36.8649L26.271 36.9379L26.7858 36.995L27.3164 37.0399L27.8461 37.068Z" fill="#FFFF00"/>
<path d="M29.1497 41.4791L29.393 41.5082L29.5081 41.5521L29.5362 41.5662V41.5812H29.5081L29.4782 41.5952L29.2498 41.6392H29.0626L28.4609 41.5952L27.7309 41.5812L26.9438 41.5662L26.1277 41.5812L25.7412 41.5952L25.3537 41.6242L25.0103 41.6532L24.6818 41.6832L24.4094 41.7262L24.1661 41.7842L24.0809 41.8123L23.9939 41.8423L23.9228 41.8713L23.8657 41.9143L23.8947 41.7702L23.9518 41.6242L23.8516 41.6532L23.7515 41.6832L23.6654 41.7262L23.5793 41.7702L23.5072 41.8123L23.4502 41.8713L23.408 41.9443L23.394 42.0163L23.351 41.9143L23.321 41.8282L23.306 41.7272L23.292 41.6401L23.306 41.5671L23.321 41.4801L23.335 41.408L23.3781 41.335L23.4071 41.277L23.4642 41.2049L23.5213 41.1469L23.5784 41.0889L23.7365 40.9869L23.9078 40.8858C24.0021 40.9415 24.103 40.9852 24.2082 41.0159C24.3093 41.0241 24.411 41.0143 24.5086 40.9869C24.5448 41.022 24.5876 41.0496 24.6344 41.0682C24.6813 41.0868 24.7314 41.0959 24.7818 41.0951C24.8322 41.0944 24.882 41.0837 24.9282 41.0636C24.9745 41.0436 25.0164 41.0147 25.0515 40.9784C25.0582 40.972 25.0644 40.9652 25.0702 40.9579C25.102 40.9248 25.1263 40.8852 25.1413 40.8418C25.1638 40.7464 25.1638 40.6471 25.1413 40.5517L25.3135 40.5367L25.5138 40.5086L25.729 40.4497L25.9574 40.3926L26.1867 40.3477L26.401 40.2906L26.6022 40.2616L26.7744 40.2466L26.7024 40.3055L26.5301 40.4356L26.3299 40.5947L26.1867 40.6967L26.3739 40.7407L26.5311 40.7697L26.4169 40.8998L26.3027 41.0299L26.1876 41.1609L26.1024 41.277L26.2166 41.321L26.3308 41.35L26.459 41.3781H26.7173L26.8465 41.35L26.9756 41.321L27.0748 41.262L27.1909 41.321L27.3051 41.365L27.4183 41.394L27.5344 41.423L27.7917 41.4511L28.0641 41.4801H29.1516" fill="#FFFF00"/>
<path d="M24.7532 40.6528L24.7972 40.6669L24.8393 40.6818L24.8533 40.7258L24.8674 40.7689L24.8533 40.8129L24.8393 40.8559L24.7972 40.8849H24.6961L24.668 40.8559L24.639 40.8129L24.624 40.7689L24.639 40.7258L24.668 40.6818L24.6961 40.6669L24.7532 40.6528Z" fill="#FFFF00"/>
<path d="M24.7364 40.7104L24.7654 40.7254L24.7804 40.7544L24.7654 40.7835L24.7364 40.7975L24.7083 40.7835L24.6934 40.7544L24.7083 40.7254L24.7364 40.7104Z" fill="#FFFF00"/>
<path d="M24.749 40.9098C24.7227 40.9102 24.6969 40.9028 24.6749 40.8885C24.6528 40.8742 24.6355 40.8537 24.6251 40.8295C24.6147 40.8054 24.6117 40.7787 24.6165 40.7528C24.6212 40.727 24.6335 40.7031 24.6519 40.6843C24.6702 40.6655 24.6937 40.6525 24.7194 40.647C24.7451 40.6415 24.7718 40.6437 24.7963 40.6535C24.8207 40.6632 24.8417 40.6799 24.8566 40.7015C24.8715 40.7232 24.8797 40.7488 24.88 40.7751C24.8803 40.7923 24.8771 40.8093 24.8708 40.8253C24.8644 40.8413 24.855 40.8559 24.843 40.8683C24.831 40.8806 24.8167 40.8904 24.8009 40.8973C24.7851 40.9041 24.7681 40.9077 24.7509 40.9079" fill="#FFFF00"/>
<path d="M35.4145 42.1893L35.3153 42.2342L35.2152 42.2483L35.1281 42.2632L35.058 42.2483L34.9859 42.2342L34.9138 42.2052L34.8567 42.1762L34.7856 42.1322L34.6714 42.0452L34.5573 41.9581L34.4992 41.9142L34.4281 41.8851L34.3701 41.872H34.299L34.1698 42.1472L33.9985 42.4944L33.9405 42.5824L33.8834 42.6544L33.8263 42.6984L33.7692 42.7415L33.6972 42.7705H33.6251L33.5549 42.7415L33.4679 42.6984L33.4398 42.6544L33.4108 42.6114L33.3827 42.5534L33.3537 42.4804L33.3256 42.3503L33.3116 42.2632L33.2246 42.3362L33.1385 42.4364L33.0673 42.5534L32.9822 42.6835L32.8811 42.8145L32.781 42.9155L32.7239 42.9736L32.6527 43.0176L32.5807 43.0456L32.4955 43.0756H32.4515L32.3795 43.0906L32.3093 43.0756L32.2512 43.0456L32.08 42.8426L31.8928 42.6404L31.7637 42.8426L31.6205 43.0176L31.5493 43.0906L31.4773 43.1626L31.4052 43.2197L31.335 43.2646L31.2779 43.2927L31.2059 43.3077H31.1338L31.0767 43.2927L31.0196 43.2646L30.9766 43.2197L30.9195 43.1476L30.8905 43.0606L30.8615 42.9736L30.8044 42.8285L30.7903 42.7555L30.7623 42.6984L30.7332 42.6685H30.7052L30.3177 43.3077L30.2606 43.3657L30.1605 43.4088L30.0454 43.4387L29.9312 43.4668H29.803L29.7019 43.4387L29.6738 43.4237L29.6298 43.3797L29.6167 43.3507V43.2927L29.6738 42.6544L29.6298 42.6685L29.5727 42.6984L29.5157 42.7265L29.4595 42.7855L29.3435 42.9155L29.2171 43.0606L29.088 43.2197L28.9307 43.3507L28.8587 43.4088L28.7866 43.4668L28.7014 43.5108L28.6294 43.5257L28.5292 43.5398L28.4581 43.5257L28.4291 43.5108L28.4001 43.4818L28.386 43.4387V43.3947L28.4001 43.2075L28.4291 43.0204L28.4431 42.9184L28.4291 42.8313L28.4141 42.7443L28.358 42.6432L28.2719 42.7733L28.1277 42.9605L27.9574 43.1476L27.7702 43.3348L27.6692 43.4069L27.569 43.4799L27.4838 43.5089L27.4118 43.5379L27.3828 43.5239H27.3453L27.3154 43.4949L27.3014 43.4799L27.2733 43.4368L27.2592 43.3928V43.3348L27.2443 43.2628L27.2592 42.7115L26.9008 42.9577L26.4675 43.2319L26.3673 43.2759L26.2532 43.3339L26.153 43.3629L26.0379 43.3919L25.9415 43.4191H25.8386L25.7375 43.4041L25.6514 43.3751L25.6944 43.26L25.7375 43.1579L25.7796 43.0559L25.8386 42.9689L25.8957 42.8828L25.9527 42.7948L26.0239 42.7218L26.095 42.6498L26.2532 42.5337L26.4403 42.4177L26.6275 42.3316L26.8428 42.2586L27.058 42.2005L27.3004 42.1565L27.5447 42.1126L27.7871 42.0845L28.3168 42.0555L28.8615 42.0405H29.9471L30.2185 42.0255L30.4759 42.0115L30.7342 41.9965L30.9775 41.9684L31.2199 41.9245L31.4352 41.8805L31.6504 41.8281L31.8507 41.742L32.0379 41.6549L32.1951 41.5379L32.3523 41.4228L32.4815 41.2618L32.3383 40.9717L32.4525 40.9577L32.5676 40.9287L32.6818 40.8716L32.7819 40.7976L32.8259 40.7696L32.868 40.7246L32.897 40.6676L32.9251 40.6236L32.9391 40.5665V40.4645L32.911 40.4064L33.1544 40.3625L33.4117 40.3344L33.6841 40.3194H33.9648L34.5535 40.3475L35.1544 40.3924L35.7702 40.4645L36.3701 40.5225L36.9578 40.5815L37.5016 40.6095V40.8126L37.4875 40.8997L37.4594 40.9867L37.4304 41.0737L37.4014 41.1467L37.3593 41.2038L37.3022 41.2768L37.2011 41.3779L37.0729 41.4659L36.9438 41.5239L36.8006 41.5529L36.6433 41.5819L36.4852 41.5669L36.342 41.5529L36.1848 41.5089L36.0416 41.4369L35.8984 41.3648L35.7842 41.2618L35.6747 41.1458V41.3919L35.6317 41.712L35.6036 41.872L35.5605 42.0162L35.5315 42.0742L35.4885 42.1172L35.4604 42.1612L35.4145 42.1893ZM23.9032 40.8257L24.2326 40.9708L24.3187 40.8987L24.4329 40.8117L24.5611 40.7396L24.6762 40.6666L25.1048 40.4925L25.4792 40.3185L25.6664 40.2464L25.8245 40.1584L25.9818 40.0714L26.1109 39.9844L26.4394 39.7672L26.7688 39.5492L27.0842 39.3461L27.3706 39.143L27.5849 38.968L27.7571 38.8098L27.9443 38.6358L28.1446 38.4486L28.2157 38.3756L28.3018 38.3175L28.402 38.2595L28.5171 38.2024L28.7595 38.0864L29.0028 37.9994L29.3332 37.9114L29.6897 37.8253L30.0641 37.7513L30.4796 37.6793L30.9812 37.6222L31.4819 37.5492L31.9976 37.4912L32.4993 37.4041L32.6696 37.3751L32.8278 37.3311L33 37.2881L33.1712 37.2441L33.3434 37.027L33.6148 36.7219L33.802 36.5347L34.0163 36.3616L34.2597 36.1744L34.546 35.9872L34.9747 35.7261L35.4332 35.494L35.9012 35.2479L36.3588 35.0298L36.7884 34.8089L37.189 34.6068L37.5193 34.4327L37.7776 34.2577L37.8478 34.0396L37.948 33.8225L38.0771 33.6044L38.2343 33.3873L38.4056 33.1552L38.6218 32.9231L38.8502 32.662L39.1365 32.3812L39.3939 32.1491L39.6663 31.917L39.8094 31.816L39.9526 31.714L40.1108 31.6269L40.268 31.5399L40.4253 31.4669L40.5834 31.4089L40.7538 31.3667L40.9119 31.3218L41.0841 31.3078L41.2413 31.2928L41.4136 31.3078L41.5708 31.3368L41.5567 31.5109L41.5128 31.6849L41.4557 31.859L41.3836 32.0462L41.2844 32.2334L41.1552 32.4205L40.998 32.6236L40.8108 32.8277L40.954 32.8117L41.0832 32.7827L41.1833 32.7537L41.2835 32.7107L41.3696 32.6807L41.4697 32.6526L41.5979 32.6386L41.7411 32.6236L41.7561 32.7256V32.8277L41.7411 32.9287L41.713 33.0158L41.67 33.1028L41.6129 33.1898L41.5558 33.2619L41.4837 33.3349L41.1833 33.6241L40.882 33.8992L41.0542 33.9152L41.2413 33.9732L41.4285 34.0303L41.5708 34.0602L41.3986 34.1903L41.1983 34.3213L40.998 34.4514L40.7687 34.5834L40.5413 34.7153L40.312 34.8613L40.0837 35.0204L39.8684 35.1945L39.9685 35.2095L40.0977 35.2675L40.1548 35.2815L40.2119 35.3106L40.2549 35.3255L40.298 35.3106L40.0116 35.4697L39.6532 35.6512L39.4819 35.7373L39.3378 35.8253L39.2666 35.8683L39.2236 35.9114L39.1946 35.9554L39.1665 35.9994L39.1805 36.0574L39.2095 36.1004L39.2666 36.1444L39.3097 36.1884L39.2956 36.2464L39.2666 36.2886L39.2095 36.3335L39.1525 36.3765L39.0233 36.4495L38.8511 36.5216L38.6798 36.5787L38.5226 36.6376L38.4066 36.6957L38.3214 36.7397L38.6078 37.0298L38.5076 37.1299L38.4066 37.2029L38.3214 37.2469L38.2203 37.2909L38.021 37.319H37.7486L37.7786 37.45L37.8198 37.581L37.8488 37.7261L37.8768 37.8711L37.6344 38.0583L37.334 38.2717L37.0046 38.4888L36.6302 38.7059L36.415 38.822L36.2025 38.9268L35.9733 39.0138L35.7299 39.1009L35.4716 39.1879L35.2002 39.2459L34.9138 39.304L34.6144 39.347L35.1431 39.362H35.6008L36.0303 39.318L36.4169 39.275L36.7753 39.202L37.0907 39.1159L37.4052 38.9989L37.7065 38.8828L38.1071 38.6957L38.4936 38.4785L38.8679 38.2464L39.2535 38.0143L39.0233 37.8973L38.794 37.8253L38.6798 37.7813L38.5647 37.7233L38.4356 37.6652L38.3074 37.5932L38.4215 37.4996L38.5507 37.4425L38.7079 37.3845L38.8801 37.3414L39.2236 37.2694L39.5811 37.2244L39.8965 37.1814L40.1829 37.1524L40.297 37.1224L40.3981 37.0943L40.4552 37.0653L40.4973 37.0223L40.4833 37.0073L40.4552 36.9792L40.4112 36.9643L40.3541 36.9343L40.1969 36.9053L39.9966 36.8763L39.7926 36.8679L39.5914 36.8389L39.4201 36.7958L39.3059 36.7518L39.6925 36.6648L40.079 36.5768L40.4224 36.5047L40.7088 36.4336L40.9522 36.3606L41.1665 36.2726L41.2676 36.2296L41.3387 36.1865L41.4107 36.1426L41.4678 36.0845L41.4529 36.0696L41.4248 36.0405L41.3677 36.0265L41.2956 36.0115L41.1085 35.9975H40.8941L40.6648 35.9825L40.4505 35.9685L40.2634 35.9385L40.1482 35.9095L40.2484 35.8665L40.3485 35.8234L40.692 35.7214L40.9933 35.6344L41.2657 35.5623L41.523 35.4743L41.7945 35.3873L42.0668 35.2769L42.195 35.2039L42.3101 35.1309L42.3532 35.0878L42.3962 35.0298L42.4393 34.9867L42.4533 34.9428L42.4393 34.8997L42.3962 34.8707L42.3532 34.8557H41.9526L41.7654 34.8707H41.5071L41.436 34.8557L41.378 34.8258L41.3218 34.7977L41.8946 34.4233L42.4243 34.0743L42.8922 33.7701L43.3078 33.48L43.48 33.3349L43.6372 33.1898L43.7664 33.0448L43.8805 32.8997L43.9657 32.7406L44.0378 32.5806L44.0818 32.4065V32.2193H43.9807L43.8805 32.2334L43.7664 32.2774L43.6512 32.3213L43.4229 32.4664L43.1786 32.6115L43.0504 32.6845L42.9353 32.7565L42.8061 32.8146L42.677 32.8576L42.5638 32.8866L42.4486 32.9016H42.3195L42.2053 32.8576L42.5488 32.5974L42.9353 32.2624L43.3789 31.8712L43.8235 31.436L44.2671 30.9681L44.6817 30.5001L44.8688 30.253L45.056 30.0209L45.2132 29.7888L45.3564 29.5708L45.3864 29.5128L45.3995 29.4697L45.3864 29.4117L45.3714 29.3677L45.3564 29.3246L45.3143 29.2872L45.2713 29.2442L45.2282 29.2292L45.1711 29.1992L45.1271 29.1936H45.012L44.9549 29.2077L44.8829 29.2226L44.8408 29.2666L44.7837 29.3097L44.5207 29.568L44.2203 29.8731L43.9049 30.2072L43.5605 30.5404L43.217 30.8445L42.8735 31.1356L42.7023 31.2526L42.545 31.3536L42.3738 31.4416L42.2306 31.5137L42.3298 31.4266L42.4589 31.2956L42.6311 31.1225L42.8183 30.9053L43.2338 30.3962L43.6915 29.8019L43.9208 29.4819L44.1351 29.1627L44.3504 28.8586L44.5375 28.5385L44.7097 28.2493L44.8529 27.9873L44.9671 27.7411L45.0392 27.538L45.0532 27.465V27.349L45.0392 27.3059L45.0102 27.262L44.9821 27.2189L44.9531 27.1899L44.91 27.1749L44.8239 27.1319L44.7238 27.1029H44.5235L44.4664 27.1178L44.4234 27.1319L44.3663 27.1599L44.3223 27.2039L44.2081 27.3059L44.0977 27.451L43.8394 27.7842L43.5661 28.2053L43.2666 28.6555L42.9372 29.1234L42.75 29.3415L42.5787 29.5586L42.3916 29.7458L42.1903 29.9189L42.4486 29.4407L42.706 28.8895L42.8492 28.5844L42.9783 28.2793L43.1066 27.9601L43.2207 27.641L43.3218 27.3078L43.422 26.9877L43.494 26.6695L43.5511 26.3495L43.5792 26.0453L43.5942 25.7552L43.5792 25.6101L43.5642 25.4791L43.5511 25.349L43.5221 25.218L43.5071 25.1749L43.479 25.1309L43.4369 25.0879L43.4079 25.0579L43.3078 25.0149L43.2076 24.9868H43.1066L43.0214 25.0009L42.9924 25.0149L42.9493 25.0299L42.9353 25.0579L42.9213 25.1019L42.7781 25.5811L42.6489 26.0593L42.5198 26.5675L42.3916 27.0607L42.2624 27.5539L42.0911 28.0219L42.0013 28.2577L41.9021 28.4608L41.787 28.6779L41.6578 28.8651L41.7439 28.444L41.801 28.0696L41.8581 27.7215L41.8871 27.4023L41.9161 27.1272L41.9302 26.8801L41.9161 26.677L41.9021 26.5029L41.8731 26.357L41.83 26.2418L41.801 26.1979L41.7729 26.1539L41.7439 26.1249L41.7009 26.1108L41.6578 26.0968L41.6157 26.0818H41.5708L41.5287 26.0968L41.4136 26.1249L41.2994 26.1838L41.1992 26.6518L41.0982 27.101L40.984 27.5221L40.8558 27.9283L40.7126 28.3345L40.5553 28.7257L40.3831 29.1468L40.1829 29.568L40.0397 29.8431L39.8965 30.1239L39.7383 30.4047L39.5811 30.6798L39.4098 30.9418L39.2376 31.203L39.0504 31.4641L38.8633 31.7252L38.5198 32.1604L38.1614 32.5675L37.787 32.9737L37.4005 33.348L36.9999 33.7224L36.5891 34.0602L36.1595 34.3953L35.7168 34.7135L35.4145 34.9166L35.1001 35.1196L34.7847 35.3068L34.4702 35.494L33.9686 35.7252L33.4679 35.9582L32.9532 36.1454L32.4366 36.3325L32.0079 36.4636L31.5783 36.5946L31.1347 36.6966L30.6911 36.7986L30.2466 36.8679L29.788 36.9259L29.3435 36.9849L28.8858 37.0139L28.8428 37.0279L28.8006 37.0419L28.7145 37.0859L28.6135 37.1589L28.4684 37.3002L28.2812 37.4743L28.0566 37.7102L27.7843 38.0153L27.5269 38.3194L27.2255 38.646L27.0646 38.8098L26.9073 38.968L26.7202 39.1149L26.533 39.259L26.3907 39.3611L26.2466 39.4472L26.0894 39.5202L25.9312 39.5922L25.5877 39.7382L25.2443 39.8683L24.9008 39.9984L24.6004 40.1154L24.4712 40.1734L24.343 40.2464L24.2288 40.3044L24.1418 40.3615L24.0566 40.4486L23.9846 40.5216L23.9415 40.5936L23.9135 40.6666L23.8994 40.7686V40.8257" fill="#FFFF00"/>
<path d="M24.7369 40.8102C24.7229 40.81 24.7094 40.8043 24.6995 40.7943C24.6895 40.7844 24.6838 40.7709 24.6836 40.7569C24.6835 40.7497 24.6848 40.7427 24.6874 40.736C24.69 40.7294 24.6939 40.7233 24.6988 40.7182C24.7038 40.7131 24.7097 40.709 24.7162 40.7061C24.7228 40.7033 24.7298 40.7018 24.7369 40.7017C24.744 40.7017 24.7509 40.703 24.7574 40.7057C24.7638 40.7084 24.7697 40.7123 24.7747 40.7173C24.7796 40.7222 24.7836 40.7281 24.7862 40.7346C24.7889 40.7411 24.7903 40.748 24.7903 40.755C24.7904 40.7619 24.7892 40.7687 24.7867 40.7751C24.7841 40.7815 24.7804 40.7874 24.7756 40.7923C24.7708 40.7973 24.7651 40.8013 24.7588 40.804C24.7525 40.8068 24.7457 40.8082 24.7388 40.8083" fill="#FFFF00"/>
<path d="M24.7369 40.8102C24.7229 40.81 24.7094 40.8043 24.6995 40.7943C24.6895 40.7844 24.6838 40.7709 24.6836 40.7569C24.6835 40.7497 24.6848 40.7427 24.6874 40.736C24.69 40.7294 24.6939 40.7233 24.6988 40.7182C24.7038 40.7131 24.7097 40.709 24.7162 40.7061C24.7228 40.7033 24.7298 40.7018 24.7369 40.7017C24.744 40.7017 24.7509 40.703 24.7574 40.7057C24.7638 40.7084 24.7697 40.7123 24.7747 40.7173C24.7796 40.7222 24.7836 40.7281 24.7862 40.7346C24.7889 40.7411 24.7903 40.748 24.7903 40.755C24.7904 40.7619 24.7892 40.7687 24.7867 40.7751C24.7841 40.7815 24.7804 40.7874 24.7756 40.7923C24.7708 40.7973 24.7651 40.8013 24.7588 40.804C24.7525 40.8068 24.7457 40.8082 24.7388 40.8083L24.7369 40.8102Z" stroke="#FFFF00" stroke-width="0.38"/>
</svg>
