<svg width="28" height="28" viewBox="0 0 28 28" fill="none" xmlns="http://www.w3.org/2000/svg">
<path d="M14.0003 2.33325C20.4436 2.33325 25.667 7.55659 25.667 13.9999C25.667 20.4432 20.4436 25.6666 14.0003 25.6666C12.1961 25.6666 10.4852 25.2549 8.95767 24.5216L3.24626 26.2021L1.19434 26.806L1.79818 24.754L3.47754 19.0414C2.74467 17.5143 2.33366 15.8037 2.33366 13.9999C2.33366 7.55664 7.55706 2.33332 14.0003 2.33325ZM12.8337 18.6666H15.167V9.33325H12.8337V18.6666ZM9.04199 16.3333H11.3753V11.6666H9.04199V16.3333ZM16.6253 11.6666V16.3333H18.9587V11.6666H16.6253Z" fill="currentColor"/>
</svg>
