<svg width="28" height="28" viewBox="0 0 28 28" fill="none" xmlns="http://www.w3.org/2000/svg">
<path d="M22.1668 19.8332C22.1668 20.0143 22.1247 20.193 22.0437 20.3551L21.0002 19.8332C21.9727 20.3195 22.0384 20.3533 22.0427 20.3561L22.0404 20.3607C22.0404 20.3607 22.0381 20.3652 22.037 20.3675C22.0344 20.3724 22.0313 20.3782 22.0279 20.3847C22.0209 20.398 22.0125 20.415 22.0016 20.4347C21.9799 20.4743 21.9496 20.526 21.9116 20.5886C21.8356 20.7138 21.7256 20.8826 21.5778 21.0797C21.2825 21.4733 20.8336 21.9863 20.1981 22.4946C18.9124 23.5233 16.9085 24.4999 14.0002 24.4999C11.0918 24.4999 9.08795 23.5233 7.80225 22.4946C7.16681 21.9863 6.71783 21.4733 6.42252 21.0797C6.27476 20.8826 6.16476 20.7138 6.0887 20.5886C6.05071 20.526 6.02043 20.4743 5.9987 20.4347C5.98783 20.415 5.97949 20.398 5.97249 20.3847C5.96907 20.3782 5.96589 20.3724 5.96338 20.3675C5.96218 20.3652 5.95996 20.3607 5.95996 20.3607L5.95769 20.3573C5.96189 20.3545 6.02768 20.3195 7.00016 19.8332L5.95654 20.3551C5.87555 20.193 5.8335 20.0143 5.8335 19.8332V16.299L12.5839 20.0496C12.6145 20.0667 12.6459 20.0824 12.6774 20.0976L12.813 20.1624C12.8491 20.1797 12.8863 20.1967 12.9234 20.2114C13.7322 20.5326 14.6479 20.4764 15.4164 20.0496L22.1668 16.299V19.8332ZM13.5695 4.74859C13.8921 4.62046 14.2583 4.6425 14.5665 4.81352L25.0357 10.6298L26.1887 11.2063L26.33 11.2894C26.6425 11.5052 26.8335 11.8632 26.8335 12.2499V19.8332H24.5002V13.0007L14.5665 18.5195C14.2583 18.6907 13.8921 18.7126 13.5695 18.5845L13.4339 18.5195L2.93392 12.6862C2.56359 12.4804 2.3335 12.0902 2.3335 11.6665C2.33357 11.2429 2.5636 10.8526 2.93392 10.6469L13.4339 4.81352L13.5695 4.74859Z" fill="currentColor"/>
</svg>
