<svg width="56" height="56" viewBox="0 0 56 56" fill="none" xmlns="http://www.w3.org/2000/svg">
<rect width="56" height="56" rx="28" fill="#3BA3F8"/>
<path d="M37.4529 23.9224C38.0412 23.9822 38.5 24.4794 38.5 25.0833V35.5833C38.5 36.2277 37.9777 36.75 37.3333 36.75C34.2268 36.75 31.7681 38.1613 28.6687 40.3309C28.2672 40.6119 27.7328 40.6119 27.3313 40.3309C24.2319 38.1613 21.7731 36.75 18.6667 36.75C18.0223 36.75 17.5 36.2277 17.5 35.5833V25.0833L17.5057 24.9637C17.5656 24.3756 18.0627 23.9167 18.6667 23.9167C22.245 23.9167 25.5583 25.9488 28 27.7198C30.4417 25.9488 33.755 23.9167 37.3333 23.9167L37.4529 23.9224ZM28 15.75C30.5773 15.75 32.6667 17.8393 32.6667 20.4167C32.6667 22.994 30.5773 25.0833 28 25.0833C25.4227 25.0833 23.3333 22.994 23.3333 20.4167C23.3333 17.8393 25.4227 15.75 28 15.75Z" fill="white"/>
</svg>
