<svg width="56" height="56" viewBox="0 0 56 56" fill="none" xmlns="http://www.w3.org/2000/svg">
<rect width="56" height="56" rx="28" fill="#3BA3F8"/>
<path d="M27.4085 31.1303C26.2496 31.1303 25.5011 30.3009 25.5011 29.0887V29.0121C25.5011 27.6212 26.2134 26.6897 27.5293 25.8986C29.1711 24.8778 29.5936 24.3291 29.5936 23.2317C29.5936 22.1981 28.8089 21.4708 27.7224 21.4708C26.7566 21.4708 26.1047 21.9429 25.7305 22.8744C25.3804 23.7038 24.6923 24.1249 23.8472 24.1249C22.7124 24.1249 21.9881 23.3848 22.0001 22.2364C22.0001 21.6877 22.1209 21.1901 22.3744 20.7052C23.1832 19.0974 25.1993 18 27.9397 18C31.5976 18 34 20.0161 34 23.1169C34 24.9926 33.167 26.2942 31.3924 27.3788C29.7385 28.3868 29.4246 28.8462 29.1832 29.7649C28.9055 30.6582 28.3381 31.1303 27.4085 31.1303ZM27.4689 37C26.2013 37 25.1872 35.9919 25.1872 34.7032C25.1872 33.4271 26.2013 32.4191 27.4689 32.4191C28.7244 32.4191 29.7506 33.4271 29.7506 34.7032C29.7506 35.9919 28.7244 37 27.4689 37Z" fill="white"/>
</svg>
