<svg width="28" height="28" viewBox="0 0 28 28" fill="none" xmlns="http://www.w3.org/2000/svg">
<path d="M13.2642 1.42876C13.7223 1.05502 14.3978 1.08138 14.825 1.50852L17.9832 4.66672H22.1668L22.2865 4.67242C22.8743 4.73253 23.3334 5.2296 23.3334 5.83339V10.017L26.4917 13.1752C26.9467 13.6308 26.9471 14.3695 26.4917 14.8249L23.3334 17.9832V22.1667C23.3331 22.8105 22.8106 23.3331 22.1668 23.3334H17.9832L14.825 26.4915C14.3696 26.9468 13.6308 26.9465 13.1753 26.4915L10.0171 23.3334H5.83346C5.1894 23.3334 4.66724 22.8107 4.66679 22.1667V17.9832L1.50859 14.8249C1.05305 14.3694 1.0532 13.6308 1.50859 13.1752L4.66679 10.017V5.83339L4.6725 5.71377C4.73238 5.12562 5.22951 4.66672 5.83346 4.66672H10.0171L13.1753 1.50852L13.2642 1.42876ZM14.0001 8.16672C10.7785 8.16672 8.16679 10.7784 8.16679 14C8.16695 17.2216 10.7786 19.8334 14.0001 19.8334C17.2216 19.8333 19.8333 17.2216 19.8334 14C19.8334 10.7785 17.2217 8.16681 14.0001 8.16672Z" fill="currentColor"/>
</svg>
